<svg xmlns="http://www.w3.org/2000/svg" width="235.651" height="62.746" viewBox="0 0 235.651 62.746"><g id="svgg" transform="translate(-7.988 -30.487)"><path id="path0" d="M89.611,30.834c0,.249.485.771,1.079,1.16,7.536,4.938,7.916,19.7.784,30.465C87.53,68.41,73.974,79.607,75.077,76c.137-.447,2.267-8.33,4.733-17.518S84.4,41.426,84.532,41c.21-.687-.106-.779-2.667-.779h-2.9l-.465,1.67c-4.278,15.374-11.228,42.07-11.009,42.288.615.615,7.712-1.218,11.165-2.886,19.28-9.306,29.253-33.086,20.214-48.2L97.4,30.64l-3.895-.129c-2.425-.081-3.895.042-3.895.324M25.927,41.888c-.256.919-3.106,11.544-6.335,23.612L13.722,87.44H11.589c-2.337,0-2.136-.277-3.305,4.567l-.3,1.225H31.272l.434-1.14a18.126,18.126,0,0,0,.714-2.9L32.7,87.44H19.571l.3-1.225C20.291,84.5,31.668,41.95,31.961,41c.212-.687-.1-.779-2.665-.779h-2.9l-.465,1.67m12.682,9.578c-.1.307-2.013,7.473-4.245,15.927S30.2,83.114,30.08,83.543c-.209.72.345.779,7.346.779H45l.7-2.408c1.031-3.548,1.22-3.384-3.9-3.384H37.2l1.1-4.215L39.4,70.1l3.583-.129,3.583-.128.576-2.228c.317-1.225.58-2.377.585-2.561s-1.511-.334-3.368-.334H40.98l.3-1.346c.162-.741.632-2.6,1.043-4.121l.748-2.774,4.717-.126,4.717-.126.54-1.879.764-2.658c.289-1-14.861-1.226-15.2-.223m63.339,15.816c-2.391,9-4.34,16.522-4.333,16.706s3.4.334,7.535.334h7.52l.519-2.116c.285-1.164.623-2.466.751-2.9.212-.708-.2-.78-4.5-.78s-4.717-.072-4.512-.779c.124-.429.45-1.682.724-2.785s.7-2.656.952-3.452l.455-1.448h6.918l.544-1.893.763-2.655c.191-.665-.226-.778-3.282-.891l-3.5-.13,1.1-4.121,1.1-4.121H120.2l.522-2.261a26.021,26.021,0,0,0,.522-2.673c0-.236-3.2-.412-7.473-.412h-7.473l-4.346,16.373m17.8-.207c-2.367,8.891-4.3,16.409-4.3,16.706,0,.4,1.577.541,5.937.541h5.938l.491-2.116c.27-1.164.627-2.466.793-2.9.27-.7-.031-.78-2.865-.78a13.641,13.641,0,0,1-3.166-.187c0-.1,1.49-5.766,3.311-12.585s3.447-12.949,3.612-13.623l.3-1.225h-5.746l-4.3,16.166M137.311,52.58c-.247.919-2.143,8.03-4.215,15.8s-3.9,14.543-4.057,15.046c-.286.9-.182.914,7.4.793l7.69-.122.577-2.228c.908-3.5,1.1-3.342-3.861-3.342-2.45,0-4.46-.15-4.467-.334s.44-2.088.993-4.232l1-3.9h7.216l.522-2.261a26.194,26.194,0,0,0,.522-2.673c0-.227-1.508-.412-3.35-.412-3.251,0-3.343-.029-3.1-1,.138-.552.606-2.406,1.039-4.121l.786-3.118,4.734-.126,4.734-.126.7-2.392c.382-1.316.7-2.512.7-2.658a54.255,54.255,0,0,0-7.556-.266h-7.556l-.448,1.671m82.608-.334c-.26,1.185-.478,1.338-1.929,1.35l-1.635.014,1.265,1.112c1.129.994,1.215,1.253.8,2.436-.523,1.5-.259,1.635,1.194.618.924-.648,1.1-.645,2.142.035,1.4.914,1.661.7,1.071-.849-.4-1.045-.3-1.338.767-2.276l1.223-1.076-1.635-.014c-1.451-.012-1.669-.165-1.929-1.35-.162-.736-.462-1.337-.669-1.337s-.506.6-.668,1.337m8.754,0c-.407,1.168-.679,1.336-2.16,1.339l-1.694,0,1.279,1.024c1.1.88,1.236,1.223.967,2.448-.351,1.6-.034,1.777,1.189.671.783-.708.914-.705,2.2.053l1.365.806-.318-1.446c-.274-1.247-.143-1.589.956-2.487l1.273-1.041L232.1,53.6c-1.4-.014-1.692-.2-2.093-1.353a3.3,3.3,0,0,0-.668-1.337,3.3,3.3,0,0,0-.668,1.337m8.846-.112c-.469,1.267-.74,1.45-2.163,1.464l-1.627.016,1.328,1.085c1.223,1,1.288,1.191.818,2.434-.59,1.564-.5,1.61,1.22.6,1.2-.708,1.326-.708,2.109,0,1.223,1.107,1.54.928,1.188-.671-.269-1.224-.133-1.567.967-2.448l1.28-1.024-1.67,0c-1.457,0-1.748-.186-2.292-1.451l-.623-1.448-.535,1.448" transform="translate(0 0)" fill="#fff" fill-rule="evenodd"></path><text id="Residence" transform="translate(180.639 84.344)" fill="#fff" font-size="15" font-family="TimesNewRomanPS-BoldItalicMT, Times New Roman" font-weight="700" font-style="italic"><tspan x="0" y="0">Residence</tspan></text></g></svg>